<svg xmlns="http://www.w3.org/2000/svg" xmlns:xlink="http://www.w3.org/1999/xlink" width="749.356" height="524.549" xmlns:v="https://vecta.io/nano"><path d="M322.718 336.07l1.26 4.926-4.297-2.719-4.296 2.719 1.26-4.926-3.915-3.246 5.076-.324 1.876-4.727 1.878 4.727 5.074.324zm-40.883-39.565l1.26 4.93-4.297-2.723-4.296 2.723 1.258-4.93-3.914-3.242 5.074-.325 1.877-4.725 1.877 4.725 5.074.325zm-10.78-54.444l1.26 4.926-4.296-2.72-4.297 2.72 1.26-4.926-3.915-3.245 5.076-.325 1.877-4.727 1.876 4.727 5.076.325z" fill="#fff" fill-rule="evenodd"/><path fill="#009c37" fill-rule="evenodd" d="M749.356 0V524.55H0V0z"/><path fill="#fee000" d="M685.661 262.275L374.678 460.854 63.695 262.275 374.678 63.696z"/><path fill="#027" d="M374.677 131.138c72.414 0 131.138 58.724 131.138 131.138s-58.725 131.137-131.138 131.137-131.137-58.724-131.137-131.137 58.723-131.138 131.137-131.138z"/><g fill="#fff" fill-rule="evenodd"><use xlink:href="#B"/><path d="M407.598 255.216l.904 3.544-3.089-1.956-3.092 1.956.908-3.544-2.818-2.334 3.651-.233 1.351-3.4 1.35 3.4 3.651.233z"/><use xlink:href="#B" x="-146.746" y="24.291"/><path d="M326.071 268.674l1.064 4.157-3.627-2.295-3.626 2.295 1.064-4.157-3.304-2.741 4.283-.272 1.583-3.988 1.585 3.988 4.283.272zm-33.624 18.725l.678 2.65-2.312-1.463-2.31 1.463.677-2.65-2.106-1.746 2.729-.174 1.01-2.543 1.01 2.543 2.731.174z"/><use xlink:href="#B" x="-135.966" y="78.739"/><path d="M267.628 307.654l1.063 4.157-3.626-2.295-3.626 2.295 1.063-4.157-3.303-2.737 4.281-.275 1.585-3.99 1.583 3.99 4.283.275zm40.248 1.021l1.063 4.16-3.624-2.297-3.626 2.297 1.063-4.16-3.303-2.739 4.283-.274 1.583-3.989 1.583 3.989 4.281.274zm-5.121 13.671l.905 3.544-3.09-1.958-3.09 1.958.905-3.544-2.815-2.334 3.651-.233 1.35-3.402 1.35 3.402 3.651.233z"/><use xlink:href="#B" x="-95.083" y="118.3"/><path d="M376.496 366.931l.486 1.893-1.652-1.046-1.65 1.046.484-1.893-1.503-1.245 1.948-.127.72-1.816.722 1.816 1.95.127zm1.734-80.643l1.061 4.158-3.626-2.296-3.626 2.296 1.063-4.158-3.303-2.739 4.283-.275 1.583-3.988 1.585 3.988 4.281.275zm11.993 11.22l1.064 4.158-3.624-2.297-3.626 2.297 1.061-4.158-3.303-2.737 4.281-.275 1.586-3.988 1.583 3.988 4.283.275zm-21.523 8.14l.678 2.65-2.312-1.462-2.31 1.462.677-2.65-2.107-1.745 2.731-.174 1.01-2.544 1.01 2.544 2.731.174zm-9.014-6.764l.905 3.544-3.09-1.958-3.09 1.958.905-3.544-2.815-2.337 3.651-.231 1.35-3.401 1.35 3.401 3.651.231z"/><use xlink:href="#B" x="-39.861" y="106.939"/><path d="M404.127 337.745l.904 3.546-3.089-1.958-3.09 1.958.905-3.546-2.817-2.332 3.651-.234 1.351-3.398 1.35 3.398 3.649.234zm11.128 16.316l1.063 4.16-3.624-2.297-3.627 2.297 1.064-4.16-3.303-2.736 4.281-.276 1.585-3.988 1.581 3.988 4.284.276zm11.593-13.015l.907 3.542-3.09-1.955-3.092 1.955.907-3.542-2.815-2.333 3.648-.234 1.352-3.401 1.348 3.401 3.651.234zm15.637 23.462l.905 3.545-3.089-1.958-3.09 1.958.904-3.545-2.815-2.333 3.652-.234 1.35-3.4 1.347 3.4 3.653.234zm.531-13.628l1.063 4.157-3.627-2.296-3.626 2.296 1.064-4.157-3.302-2.74 4.281-.272 1.582-3.99 1.583 3.99 4.284.272zm-.737-12.874l.908 3.542-3.092-1.955-3.089 1.955.904-3.542-2.814-2.336 3.649-.234 1.35-3.4 1.351 3.4 3.651.234zm12.953.126l.905 3.546-3.09-1.958-3.09 1.958.907-3.546-2.818-2.332 3.651-.234 1.351-3.4 1.35 3.4 3.651.234zm12.626-5.409l1.064 4.154-3.626-2.293-3.627 2.293 1.064-4.154-3.303-2.741 4.283-.272 1.583-3.989 1.582 3.989 4.283.272zm6.201-10.405l1.064 4.156-3.628-2.293-3.626 2.293 1.064-4.156-3.302-2.74 4.281-.274 1.582-3.988 1.585 3.988 4.283.274z"/><use xlink:href="#B" x="51.541" y="91.811"/><path d="M487.684 310.441l.905 3.544-3.09-1.956-3.092 1.956.908-3.544-2.817-2.332 3.649-.237 1.351-3.4 1.35 3.4 3.649.237zm-191.341-88.59c-16.143 0-32.006 1.228-47.504 3.595 1.894-6.483 4.282-12.758 7.115-18.788a332.68 332.68 0 0 1 40.39-2.47c78.836 0 151.388 27.727 208.396 73.898a129.44 129.44 0 0 1-3.994 19.65c-54.987-47.258-126.452-75.885-204.404-75.885z"/></g><path fill="#009c37" fill-rule="evenodd" d="M262.601 215.05c.11 1.281.482 2.251 1.112 2.912s1.455.945 2.478.858c1.032-.089 1.806-.512 2.32-1.27s.714-1.778.604-3.059-.481-2.248-1.117-2.908-1.47-.945-2.502-.857c-1.022.089-1.788.51-2.296 1.266s-.708 1.773-.599 3.057zm-2.44.209c-.161-1.88.223-3.414 1.153-4.605s2.263-1.864 4.002-2.012 3.167.284 4.293 1.302 1.767 2.464 1.928 4.338-.225 3.413-1.161 4.606-2.271 1.866-4.008 2.014-3.168-.284-4.288-1.302-1.759-2.465-1.921-4.342zm19.006-2.174l2.825-.094c.611-.021 1.056-.161 1.338-.418s.408-.654.39-1.188c-.017-.506-.169-.886-.457-1.139s-.711-.369-1.264-.35l-2.934.098.103 3.092zm-2.184 6.649l-.39-11.674 5.663-.189c1.272-.044 2.225.198 2.855.722s.966 1.347 1.003 2.466c.024.711-.106 1.313-.389 1.798s-.702.825-1.256 1.018c.514.164.883.426 1.112.788s.367.936.426 1.717l.095 1.376.001.049c.036.695.202 1.114.494 1.25l.011.358-2.634.089c-.089-.163-.159-.361-.211-.6s-.091-.525-.11-.858l-.074-1.227c-.052-.722-.202-1.207-.456-1.45s-.703-.358-1.343-.337l-2.546.085.152 4.539-2.403.081zm17.237-2.624l1.927.037c1.116.021 1.93-.255 2.439-.83s.779-1.517.804-2.827c.025-1.305-.19-2.269-.642-2.891s-1.175-.942-2.165-.962l-2.219-.042-.143 7.516zm-2.395 2.065l.222-11.678 4.573.086c1.791.034 3.119.545 3.98 1.527s1.276 2.459 1.239 4.425c-.02 1.067-.201 2.005-.541 2.813s-.827 1.454-1.453 1.938c-.473.361-1.005.617-1.601.768s-1.426.214-2.496.193l-3.924-.071zm14.82.26l.629-11.662 8.47.457-.11 2.028-6.104-.329-.134 2.486 5.582.301-.108 1.995-5.582-.301-.163 3 6.389.345-.116 2.155-8.754-.475zm13.747.817l1.238-11.613 3.534.377 1.367 9.086 3.223-8.597 3.548.379-1.238 11.614-2.239-.239.998-9.366-3.357 9.115-2.444-.262-1.392-9.621-.998 9.366-2.239-.239zm30.95 3.984l2.447-11.42 8.296 1.776-.426 1.985-5.976-1.279-.522 2.435 5.466 1.17-.418 1.955-5.467-1.171-.629 2.938 6.257 1.34-.452 2.111-8.576-1.84zm30.915.722l2.244.605c.605.164 1.08.153 1.428-.029s.595-.56.748-1.133c.144-.535.118-.977-.077-1.327s-.563-.593-1.098-.739l-2.366-.637-.879 3.26zm-.566 2.04l-1.08 4.012-2.321-.625 3.04-11.277 5.014 1.352c1.184.319 1.999.87 2.445 1.648.441.779.506 1.762.184 2.954-.312 1.163-.854 1.979-1.619 2.448s-1.709.555-2.811.258l-2.851-.769zm14.043 1.836l2.702.83c.583.18 1.052.193 1.402.04s.597-.485.756-.997c.148-.484.127-.892-.062-1.225s-.554-.58-1.081-.743l-2.806-.863-.911 2.958zm-4.228 5.575l3.433-11.164 5.415 1.664c1.217.374 2.038.912 2.462 1.613s.476 1.587.145 2.659c-.208.681-.525 1.207-.953 1.573s-.932.551-1.516.553c.431.323.694.69.794 1.108.095.418.041 1.005-.156 1.762l-.358 1.331c-.007.011-.011.026-.015.046-.19.669-.17 1.12.061 1.344l-.105.342-2.522-.775a2.38 2.38 0 0 1-.004-.636c.03-.243.085-.526.177-.846l.329-1.186c.186-.698.201-1.205.04-1.519s-.549-.568-1.158-.755l-2.435-.748-1.335 4.342-2.299-.71zm17.789-.041c-.441 1.208-.515 2.244-.223 3.109s.92 1.472 1.882 1.824c.974.356 1.854.3 2.641-.17s1.4-1.31 1.84-2.517.514-2.242.217-3.108-.933-1.478-1.905-1.833c-.964-.353-1.837-.295-2.616.176s-1.394 1.31-1.836 2.519zm-2.3-.842c.646-1.771 1.646-3 2.99-3.686s2.839-.732 4.481-.134c1.636.6 2.751 1.597 3.337 2.995s.563 2.979-.083 4.747-1.647 2.998-2.999 3.685-2.846.732-4.483.134-2.752-1.597-3.336-2.993-.555-2.978.094-4.748zm21.606 13.717c-.631.37-1.252.572-1.868.611s-1.266-.093-1.955-.386c-1.5-.64-2.494-1.68-2.982-3.119s-.368-3.011.357-4.707c.73-1.712 1.779-2.884 3.144-3.513s2.822-.615 4.37.044c1.347.574 2.308 1.363 2.887 2.37.572 1.007.703 2.111.381 3.306l-2.254-.961c.102-.616.007-1.159-.29-1.63s-.785-.853-1.461-1.139c-.897-.383-1.745-.356-2.539.085s-1.438 1.241-1.934 2.403c-.498 1.168-.621 2.195-.368 3.086s.847 1.532 1.782 1.93c.698.299 1.373.341 2.02.129s1.184-.657 1.599-1.328l-2.435-1.036.784-1.839 4.45 1.897-2.48 5.813-1.48-.632.27-1.383zm11.106-.308l2.538 1.244c.55.268 1.009.354 1.379.258s.666-.386.903-.867c.223-.455.265-.86.132-1.22-.137-.358-.457-.66-.953-.903l-2.636-1.291-1.363 2.78zm-5.048 4.846l5.135-10.49 5.089 2.492c1.142.559 1.872 1.22 2.181 1.979s.221 1.642-.272 2.648c-.312.64-.71 1.109-1.188 1.405a2.24 2.24 0 0 1-1.584.308c.377.386.579.79.611 1.219s-.115.998-.43 1.716l-.563 1.26c-.007.009-.011.024-.019.042-.296.632-.348 1.08-.151 1.338l-.158.32-2.369-1.158a2.34 2.34 0 0 1 .094-.629c.067-.235.166-.506.307-.809l.509-1.118c.296-.661.39-1.161.278-1.495s-.451-.645-1.026-.927l-2.285-1.121-1.999 4.079-2.158-1.057zm13.051 6.703l5.678-10.207 7.414 4.124-.987 1.775-5.34-2.971-1.211 2.176 4.884 2.718-.971 1.746-4.884-2.718-1.459 2.625 5.59 3.111-1.048 1.885-7.665-4.264zm13.179 3.62l2.03 1.224c-.253.593-.272 1.135-.062 1.624s.667.942 1.369 1.365c.6.362 1.113.525 1.544.496s.772-.252 1.024-.669c.363-.608-.203-1.634-1.709-3.084l-.051-.05-.181-.176c-.812-.768-1.34-1.396-1.582-1.889a2.57 2.57 0 0 1-.258-1.401c.045-.494.223-1.001.538-1.523.587-.973 1.368-1.519 2.342-1.64s2.083.197 3.332.95c1.168.704 1.917 1.532 2.242 2.48s.202 1.936-.368 2.966l-1.976-1.192c.255-.508.293-.987.11-1.441s-.584-.871-1.203-1.244c-.541-.325-1.016-.472-1.438-.436s-.743.246-.979.636c-.318.53.011 1.266.987 2.215l.617.604 1.293 1.369a5.6 5.6 0 0 1 .59.83c.268.471.395.956.371 1.451-.019.496-.189 1.007-.504 1.527-.628 1.039-1.462 1.634-2.511 1.786s-2.206-.159-3.483-.929c-1.26-.759-2.07-1.646-2.433-2.661s-.246-2.079.349-3.189zm12.31 7.698l1.964 1.33c-.286.578-.333 1.118-.148 1.619s.617.974 1.295 1.435c.579.393 1.084.583 1.515.576s.784-.21 1.059-.615c.398-.588-.119-1.642-1.543-3.168-.019-.021-.037-.037-.049-.055a3.49 3.49 0 0 1-.173-.184c-.769-.808-1.265-1.462-1.48-1.968-.196-.452-.255-.923-.187-1.413s.278-.987.617-1.492c.637-.94 1.449-1.446 2.425-1.515s2.07.307 3.279 1.124c1.129.767 1.833 1.628 2.108 2.593s.102 1.947-.522 2.945l-1.911-1.294c.28-.494.342-.971.186-1.434s-.537-.9-1.137-1.303c-.522-.356-.993-.525-1.413-.514s-.756.209-1.01.583c-.35.513-.057 1.266.867 2.267l.586.633 1.217 1.437c.229.3.41.587.545.857.245.486.345.974.299 1.47s-.241.995-.582 1.499c-.683 1.006-1.548 1.557-2.603 1.651s-2.197-.275-3.434-1.112c-1.215-.822-1.981-1.75-2.288-2.784s-.139-2.09.515-3.167zm14.841 7.878c-.776 1.023-1.147 1.996-1.123 2.905s.449 1.677 1.268 2.296c.827.625 1.685.829 2.574.611s1.721-.847 2.497-1.873c.773-1.02 1.145-1.991 1.116-2.908s-.461-1.683-1.287-2.308c-.817-.621-1.671-.818-2.551-.597s-1.714.846-2.492 1.874zm-1.954-1.478c1.134-1.505 2.451-2.388 3.938-2.651s2.929.129 4.322 1.184 2.162 2.33 2.318 3.837-.335 3.015-1.467 4.515c-1.138 1.503-2.452 2.386-3.944 2.649s-2.938-.135-4.326-1.184c-1.394-1.055-2.165-2.332-2.316-3.836s.34-3.011 1.475-4.514z"/><defs ><path id="B" d="M417.8 217.77l1.26 4.926-4.294-2.72-4.297 2.72 1.261-4.926-3.916-3.245 5.077-.325 1.876-4.727 1.874 4.727 5.076.325z"/></defs></svg>